<svg version="1.1" id="Layer_1" xmlns="http://www.w3.org/2000/svg" xmlns:xlink="http://www.w3.org/1999/xlink" x="0px" y="0px"
	 width="100%" viewBox="0 0 414 318" enable-background="new 0 0 414 318" xml:space="preserve">
<path fill="#FDFDFD" opacity="1.000000" stroke="none" 
	d="
M268.000000,319.000000 
	C180.029877,319.000000 92.559738,318.979279 5.089733,319.081848 
	C1.862846,319.085632 0.889356,318.701050 0.893942,315.092255 
	C1.025417,211.627747 1.018943,108.163033 0.912481,4.698487 
	C0.909140,1.451002 1.799234,0.929654 4.799082,0.931407 
	C140.252762,1.010568 275.706482,1.009048 411.160187,0.939358 
	C414.063110,0.937864 415.097992,1.309368 415.094269,4.657776 
	C414.979004,108.288918 414.980774,211.920227 415.092468,315.551392 
	C415.095825,318.674622 414.291840,319.077209 411.450775,319.071259 
	C363.800690,318.971436 316.150299,319.000000 268.000000,319.000000 
z"/>
<path fill="#6C299B" opacity="1.000000" stroke="none" 
	d="
M279.026123,233.142853 
	C298.132904,232.244370 316.750824,231.434998 335.358093,230.429626 
	C342.242096,230.057693 344.173065,226.916626 342.542908,220.009216 
	C342.019012,217.789307 339.391724,214.830856 342.331665,213.353256 
	C345.219116,211.902069 348.954315,212.415451 351.728027,214.787308 
	C355.354584,217.888458 357.013306,222.067703 356.922760,226.730270 
	C356.869293,229.482605 357.722351,230.368088 360.424500,230.678909 
	C375.587433,232.423141 391.049194,251.993896 388.812500,265.513184 
	C388.273285,268.772217 388.583679,272.166718 388.428497,275.495392 
	C387.847351,287.961548 382.871582,294.292572 370.763458,298.175323 
	C361.568512,301.123932 352.080231,301.092041 342.598419,300.987091 
	C311.455536,300.642456 280.313507,300.225708 249.171066,299.842834 
	C214.199554,299.412872 179.219666,299.322540 144.259140,298.453156 
	C118.455391,297.811432 92.624710,298.837769 66.848724,297.114166 
	C55.849052,296.378632 45.011177,294.866516 35.140217,289.319122 
	C25.604015,283.959839 19.442974,276.080688 19.345535,265.081360 
	C19.245832,253.826477 24.986698,245.188446 34.547508,239.202423 
	C43.214745,233.775864 52.878876,232.623047 62.795128,232.853500 
	C89.088577,233.464539 115.376511,234.380386 141.672638,234.792313 
	C178.145920,235.363708 214.622223,235.230637 251.087601,234.062027 
	C260.236389,233.768845 269.384552,233.457291 279.026123,233.142853 
z"/>
<path fill="#141414" opacity="1.000000" stroke="none" 
	d="
M71.342499,97.037331 
	C60.335968,106.012505 64.483833,128.630112 70.462402,138.640839 
	C71.499565,140.377518 73.293892,142.013474 71.042961,143.768341 
	C68.722595,145.577347 66.557983,143.527359 65.594711,142.046249 
	C58.829262,131.643860 55.440746,111.510048 61.880947,99.692291 
	C64.254120,95.337517 67.473045,91.885345 72.526215,89.983276 
	C73.392593,89.625885 73.744774,89.181023 73.841644,88.272934 
	C70.437958,78.758614 74.641960,67.530098 84.292336,59.977276 
	C85.604126,58.950611 86.867889,57.862587 88.514023,56.709023 
	C90.351791,58.162064 89.810875,59.938644 89.310028,62.051239 
	C85.714165,66.958908 80.791222,70.564514 79.123924,76.265396 
	C75.997673,86.954842 83.701393,97.292503 95.446983,99.021568 
	C102.838608,100.109688 108.577118,98.198219 112.104530,91.315933 
	C113.238060,89.104309 114.933235,87.486435 117.187103,88.915398 
	C119.333893,90.276482 117.979454,92.744995 117.075615,94.319984 
	C113.106041,101.237213 107.516914,105.668968 98.992027,105.094101 
	C97.181213,104.971977 95.355423,105.072212 93.479538,105.571739 
	C92.598068,102.882156 90.298218,102.499771 88.277527,104.298958 
	C85.043465,107.178520 83.272720,105.668686 83.011612,102.543945 
	C82.758812,99.518661 80.929176,98.328072 78.810295,96.490646 
	C77.763123,97.828957 77.425652,99.549370 78.064560,101.703140 
	C78.685333,102.977242 78.188919,103.807945 77.598404,104.895966 
	C76.276909,105.761581 75.167740,106.028984 73.607315,105.229309 
	C72.493782,103.205597 72.177773,101.363853 72.582207,99.068008 
	C72.749733,97.921776 72.286476,97.464668 71.342499,97.037331 
z"/>
<path fill="#131414" opacity="1.000000" stroke="none" 
	d="
M323.204742,176.199097 
	C321.560822,172.884995 320.101624,169.777359 318.516846,166.302277 
	C323.245911,162.038513 323.199982,167.950180 325.609070,169.717102 
	C326.435242,170.953186 327.024353,171.894928 327.822418,173.170624 
	C331.486237,167.543289 333.204376,161.180313 337.660522,156.042725 
	C339.287476,156.183746 340.505066,156.827835 342.006714,157.667603 
	C342.777252,162.580063 339.174805,165.238129 336.776428,168.857178 
	C335.559174,169.829712 333.279907,169.758347 334.827393,172.329773 
	C334.849518,174.377884 334.385315,176.015640 333.519745,177.427765 
	C332.016235,179.880692 331.833740,182.335587 332.590942,185.073792 
	C334.033142,190.288895 333.081055,195.555618 332.234283,201.443680 
	C335.729828,197.638382 337.182648,193.670105 338.376404,189.517395 
	C339.055603,187.154663 339.319183,184.571289 341.480469,182.454163 
	C342.306610,182.060196 342.821106,181.944016 343.764618,181.909607 
	C344.731812,182.005478 345.250458,182.192154 346.010864,182.791870 
	C344.858459,188.934448 344.037750,194.943771 340.985229,200.671021 
	C338.404755,202.597549 335.773193,203.997040 335.203430,207.594513 
	C334.997314,207.861832 334.799713,208.180038 334.612427,208.180847 
	C333.944305,208.998505 331.977478,207.359756 332.141357,209.737289 
	C323.793518,217.068848 314.303131,218.444839 304.157104,215.823959 
	C301.291260,215.083649 299.002899,215.195877 296.334045,216.889801 
	C294.192810,216.428177 293.290863,215.341461 293.717041,213.109650 
	C295.653412,211.547363 297.439087,210.383224 299.130280,209.095062 
	C303.871765,205.483521 304.271210,203.386261 300.856140,198.411743 
	C299.778717,196.842255 299.124634,195.206009 300.552002,194.040787 
	C301.871552,192.963562 303.821289,193.600876 305.019073,194.828217 
	C307.965820,197.847733 309.503693,201.410278 308.036835,205.658554 
	C307.454254,207.345810 306.498047,208.904083 305.630859,210.687927 
	C310.321442,212.644867 315.243958,212.713379 319.248444,210.719315 
	C323.363464,208.670242 325.213898,203.929199 325.770386,199.313065 
	C326.526520,193.040771 326.459503,186.737274 324.382599,180.240646 
	C324.796600,179.214569 324.349152,178.656998 324.188965,177.772003 
	C323.934967,176.804474 325.094910,176.733429 324.614044,176.237518 
	C324.086426,176.554153 323.736237,176.535294 323.204742,176.199097 
z"/>
<path fill="#101010" opacity="1.000000" stroke="none" 
	d="
M92.985832,105.970276 
	C93.422546,106.073471 93.354668,106.026840 93.315094,106.037827 
	C94.571510,106.315140 95.861961,106.588097 95.892242,108.674667 
	C95.900391,109.492294 95.960625,109.927704 96.037827,110.693283 
	C96.186134,111.327370 96.304390,111.633080 96.315170,112.168381 
	C96.237854,113.606789 96.861122,114.565338 97.761299,115.754288 
	C110.159500,131.772568 139.146423,139.477646 154.519455,136.238937 
	C157.999573,135.505783 161.458069,134.679535 165.315231,133.879364 
	C167.410919,133.435837 168.754196,134.038422 169.999161,135.691925 
	C165.333542,141.157318 158.840515,141.874161 152.491104,142.352402 
	C132.885696,143.829147 115.410507,137.633102 99.720818,126.326180 
	C94.601700,122.637039 90.582123,117.629959 90.680153,110.575371 
	C90.705971,108.717003 90.529572,106.886116 92.985832,105.970276 
z"/>
<path fill="#141414" opacity="1.000000" stroke="none" 
	d="
M46.385765,206.205566 
	C41.940887,197.586273 42.701077,188.174072 51.118332,180.476486 
	C56.765442,175.312225 62.229210,170.018234 64.411148,162.253204 
	C65.285156,159.142822 65.107857,156.015732 65.278114,152.893997 
	C65.393509,150.778336 66.135796,149.184433 68.296715,149.176651 
	C70.557129,149.168533 71.187820,151.031998 71.332619,152.992355 
	C72.124474,163.712952 67.501053,172.162598 60.221493,179.508118 
	C58.125748,181.622864 56.061741,183.770523 54.028652,185.945587 
	C49.695004,190.581894 49.311966,191.808884 49.942104,199.244827 
	C52.909676,196.376480 56.239052,194.694931 59.897606,193.799713 
	C61.977261,193.290863 64.782295,191.554169 65.888908,194.708237 
	C66.992203,197.852783 63.851139,198.280151 61.439056,199.315857 
	C58.492130,201.820770 55.219887,202.531998 51.659222,203.384659 
	C50.227837,204.156540 49.345543,205.082596 48.218323,206.227570 
	C47.513760,206.547546 47.080856,206.539108 46.385765,206.205566 
z"/>
<path fill="#121212" opacity="1.000000" stroke="none" 
	d="
M159.334595,43.481613 
	C162.929230,44.940384 166.123764,46.681259 169.498779,47.937065 
	C175.072235,50.010887 179.452103,53.625221 183.704636,58.076389 
	C184.828857,59.041050 185.084091,60.044231 185.191742,61.512199 
	C185.162689,62.712223 184.973984,63.476524 184.323471,64.478409 
	C176.849670,59.271873 170.333054,52.883320 161.355026,49.924572 
	C147.675980,45.416573 134.049072,44.822731 120.232681,48.933212 
	C119.121193,49.263889 117.949280,49.424362 116.876335,49.844803 
	C114.684944,50.703518 112.167015,51.186825 111.352806,48.593979 
	C110.489128,45.843605 113.325005,45.117233 115.292671,44.460949 
	C128.366302,40.100410 141.669617,39.676277 155.500336,42.561287 
	C156.924225,43.010426 158.036316,43.013596 159.334595,43.481613 
z"/>
<path fill="#131414" opacity="1.000000" stroke="none" 
	d="
M46.113560,206.340668 
	C46.539211,205.999649 46.955326,205.999237 47.683525,205.998199 
	C48.770622,205.188034 49.648602,205.435120 50.840912,205.883530 
	C51.934216,206.406891 52.738209,206.740692 53.949585,206.869965 
	C54.706642,206.998093 55.128201,207.115189 55.828049,207.423340 
	C57.279766,208.832550 58.700878,209.738297 60.367329,210.822784 
	C61.996269,213.118805 64.250572,212.627380 66.587265,213.136078 
	C67.649979,213.850708 68.481239,214.000153 69.651611,214.114624 
	C82.708733,216.222916 95.443260,215.200638 108.604279,214.098343 
	C110.133675,213.991425 111.243294,214.023560 112.681381,213.961212 
	C114.978729,213.736343 116.973404,213.233627 118.900803,213.421417 
	C120.393982,213.566895 122.620750,213.932617 122.463760,216.096619 
	C122.339355,217.811417 120.843086,218.894241 118.987953,219.036362 
	C113.878052,219.427872 108.765045,219.778931 103.655380,220.173386 
	C90.178780,221.213776 76.701332,222.369034 63.506840,218.039291 
	C56.687225,215.801437 50.764820,212.214340 46.113560,206.340668 
z"/>
<path fill="#171717" opacity="1.000000" stroke="none" 
	d="
M150.000854,216.610840 
	C152.354126,216.945724 154.226715,217.810486 153.874405,219.938904 
	C153.528702,222.027435 151.433594,222.250031 149.501053,222.003937 
	C142.642029,221.130524 135.588562,220.897430 129.922272,215.646591 
	C129.596741,214.675278 129.142776,214.155273 128.648834,213.261322 
	C126.467628,209.635864 127.287239,206.117691 128.335678,202.878891 
	C131.684296,192.534653 133.598267,182.019897 133.241318,171.122467 
	C133.163010,168.731827 133.183319,165.953583 136.495087,166.150467 
	C139.744736,166.343658 139.198608,168.953552 139.193588,171.410919 
	C139.170181,182.900253 137.980209,194.083908 133.359863,204.820480 
	C131.470032,209.211990 134.240097,213.446167 138.927887,214.785339 
	C140.668716,215.282639 142.479126,215.536362 144.637711,215.984573 
	C146.602066,215.659607 148.163239,215.528030 150.000854,216.610840 
z"/>
<path fill="#161616" opacity="1.000000" stroke="none" 
	d="
M224.996185,198.367737 
	C230.577118,193.161957 237.025009,191.512390 244.647659,192.962463 
	C245.923965,192.922714 246.788742,192.945908 247.791702,193.753754 
	C252.715576,195.970001 254.375946,199.808533 254.569321,204.582230 
	C254.648361,206.533676 254.840271,208.480545 255.300644,210.593765 
	C254.205124,218.740341 249.971008,222.330093 240.153946,222.860840 
	C232.254044,223.287964 224.652603,221.862198 218.082977,216.343292 
	C218.112411,214.301071 218.967804,213.270111 221.169495,213.376251 
	C222.083130,215.891266 223.760590,214.395126 225.352448,214.431595 
	C231.070190,215.244720 236.222458,217.400986 241.914017,215.848801 
	C247.876587,214.222702 248.579514,213.327133 247.665314,205.096695 
	C247.181992,200.745270 244.569519,198.566116 239.778595,198.708862 
	C237.081879,198.789230 234.552521,199.638870 232.164322,200.900696 
	C230.849503,201.595413 229.627106,202.526382 227.686707,202.531616 
	C225.856766,201.657532 225.498215,200.162186 224.996185,198.367737 
z"/>
<path fill="#0F0F0F" opacity="1.000000" stroke="none" 
	d="
M343.847198,101.675491 
	C342.638855,104.576027 342.821533,109.590775 338.786377,108.278183 
	C334.631012,106.926491 338.144897,103.204742 338.855255,100.630089 
	C340.429535,94.923813 343.268707,89.662659 344.495880,83.777130 
	C345.227783,80.266930 344.217804,78.924423 341.076904,78.086685 
	C336.180542,76.780708 331.229218,76.852692 326.255157,77.093658 
	C323.767731,77.214157 322.300018,76.556847 320.735718,74.109642 
	C317.822174,69.551704 313.904510,65.635643 310.219910,61.171280 
	C309.030457,59.261261 308.791443,57.740505 311.150452,56.623363 
	C316.749207,59.795273 320.424316,64.258286 323.472198,69.223846 
	C324.682892,71.196320 326.009430,71.894318 328.286743,71.811172 
	C331.584839,71.690750 334.943756,71.696671 338.197083,72.182213 
	C347.385559,73.553520 351.855560,76.373817 349.218353,87.468849 
	C348.252991,91.530365 346.455505,95.394104 344.835846,99.670670 
	C344.359131,100.450073 344.077332,100.903427 343.847198,101.675491 
z"/>
<path fill="#131313" opacity="1.000000" stroke="none" 
	d="
M170.546417,136.055878 
	C168.880051,135.419662 167.618683,134.780914 166.030975,134.004028 
	C170.333771,130.632736 175.547745,128.283218 179.810669,124.488541 
	C180.602890,123.783333 181.641434,123.908691 182.871109,124.501907 
	C183.624054,125.634743 183.888519,126.560150 183.440155,128.045380 
	C186.392227,137.564667 182.540390,145.857788 180.269836,154.664413 
	C180.028839,155.425308 179.982819,155.866272 179.872284,156.634216 
	C178.914307,160.078110 176.513687,163.856308 177.518494,166.128693 
	C178.580093,168.529572 182.886795,169.495560 185.957367,171.375504 
	C186.622726,172.544586 186.845093,173.463394 186.258667,174.858124 
	C185.381729,175.548111 184.754532,175.617477 183.619507,175.450439 
	C179.887726,174.888489 177.372375,172.301529 173.612946,172.121033 
	C171.412659,173.154526 170.406021,172.063278 169.329163,170.334473 
	C172.466080,160.523468 175.937820,151.087448 177.709122,141.153015 
	C178.132141,138.780624 178.342545,136.370300 178.697739,133.612457 
	C175.768204,134.535568 173.359818,135.294449 170.546417,136.055878 
z"/>
<path fill="#111111" opacity="1.000000" stroke="none" 
	d="
M293.235504,50.921280 
	C289.634125,50.798637 287.914673,49.814468 288.348755,45.549419 
	C288.924957,39.888008 288.264343,34.080681 287.910278,28.349941 
	C287.513824,21.932701 285.676758,20.875729 280.403839,24.306076 
	C273.878326,28.551336 267.653595,33.241734 262.219086,38.882439 
	C261.530731,39.596909 260.893036,40.387627 260.105469,40.972942 
	C258.770691,41.964931 257.363434,42.142590 256.114960,40.762394 
	C254.927597,39.449734 255.682983,38.050049 256.526154,37.233662 
	C259.980835,33.888638 263.588501,30.698420 267.199219,27.518612 
	C271.321014,23.888659 275.785553,20.708185 280.727325,18.307724 
	C287.325195,15.102818 290.804626,17.733076 292.505249,24.870262 
	C293.862915,30.567945 293.957825,35.915340 293.116913,41.541367 
	C292.820587,43.524040 292.378632,45.947475 295.075134,47.551117 
	C295.118073,49.108047 294.422577,49.973106 293.235504,50.921280 
z"/>
<path fill="#141414" opacity="1.000000" stroke="none" 
	d="
M277.212280,220.708847 
	C264.720093,222.519043 259.901306,220.148621 256.061768,210.678864 
	C255.620453,210.758026 255.668198,210.790894 255.686584,210.790771 
	C257.331390,206.861526 256.632904,201.840012 260.316223,198.957245 
	C264.181946,195.931763 265.766052,191.656921 268.089417,187.314468 
	C269.632538,185.713806 271.145050,185.724457 273.091858,186.777832 
	C271.308533,192.617538 269.173523,198.033035 264.648712,202.235214 
	C260.856598,205.756989 261.269470,211.123718 265.048431,214.475723 
	C266.479858,215.745407 268.127197,216.736176 269.966522,216.274490 
	C272.074951,215.745300 270.637512,213.711411 271.082886,212.426880 
	C271.743134,210.522644 271.463837,207.738113 274.687500,208.088516 
	C277.991791,208.447662 276.500549,210.911209 276.540070,212.695023 
	C276.558380,213.520752 276.675720,214.344315 276.820892,215.605225 
	C277.431274,217.476074 278.186676,218.883362 277.212280,220.708847 
z"/>
<path fill="#161616" opacity="1.000000" stroke="none" 
	d="
M168.896530,170.287720 
	C170.284073,170.661453 171.425537,171.322052 172.904846,172.038712 
	C170.261505,182.832367 173.435669,193.746674 172.327515,204.565552 
	C171.826004,209.461609 170.068558,213.517212 167.297607,217.428436 
	C165.386475,220.125992 162.412384,219.773056 159.883194,220.696533 
	C158.897919,221.056305 158.194275,220.092880 158.122040,219.449692 
	C157.924210,217.688034 158.888336,216.177856 160.278305,215.300873 
	C162.531891,213.878952 164.957993,212.748856 165.788025,209.477661 
	C165.986801,208.609787 166.018372,208.081314 166.135010,207.294998 
	C166.298172,198.666580 166.416489,190.299133 166.757477,181.535477 
	C166.996536,180.566727 166.990387,179.994858 166.892761,179.140717 
	C165.067810,175.579178 168.382843,173.406799 168.896530,170.287720 
z"/>
<path fill="#141414" opacity="1.000000" stroke="none" 
	d="
M317.390686,150.718445 
	C318.592712,153.386978 319.640808,155.759216 320.736572,158.531128 
	C319.721344,160.165588 318.348053,160.384842 316.399841,160.122009 
	C312.775269,153.996429 310.723969,147.495590 309.341064,140.390106 
	C309.942902,139.120300 310.185211,138.241608 309.028137,137.242767 
	C307.663544,136.824951 306.544037,136.587372 305.440277,136.291092 
	C304.305573,135.986481 303.018890,135.687622 303.534546,134.053436 
	C303.901154,132.891571 304.663666,132.168823 306.044861,132.001999 
	C309.004181,131.644516 311.953979,131.166199 314.882782,130.606964 
	C320.409607,129.551666 324.926270,126.463875 329.386536,123.262909 
	C330.893005,122.181793 332.703217,120.968987 334.177307,123.020737 
	C335.440796,124.779350 333.904388,126.112831 332.642487,127.161865 
	C328.860718,130.305695 324.656586,132.855392 320.088043,134.591751 
	C313.751770,136.999985 313.553741,137.094910 315.414520,143.665588 
	C315.682220,144.610916 315.901306,145.570007 316.191925,146.908630 
	C316.113159,148.483475 316.892212,149.383652 317.390686,150.718445 
z"/>
<path fill="#131414" opacity="1.000000" stroke="none" 
	d="
M226.643219,98.869675 
	C225.060089,104.804146 222.588562,110.253151 221.516525,116.565491 
	C221.068924,117.722488 221.001465,118.536354 220.866074,119.648590 
	C219.514908,129.350861 218.212021,138.751083 216.827469,148.571625 
	C216.423691,149.446304 216.158127,149.917557 216.399292,150.762177 
	C217.215118,152.216904 216.117310,153.218414 216.019745,154.670044 
	C214.678513,156.075134 213.320694,156.229507 211.527466,155.292847 
	C212.174835,140.044678 213.572067,125.157104 217.844757,110.331390 
	C219.851852,108.593208 219.754700,106.543571 219.798203,104.239594 
	C220.188995,102.755539 220.650101,101.596519 221.298721,100.187263 
	C222.292450,99.773170 222.774078,99.125343 223.738190,98.501999 
	C224.352829,98.293770 224.611221,98.249275 225.261765,98.239441 
	C225.896133,98.374962 226.138321,98.475822 226.643219,98.869675 
z"/>
<path fill="#191A1A" opacity="1.000000" stroke="none" 
	d="
M211.076263,155.384399 
	C212.511734,154.993744 213.815201,154.992737 215.509766,154.994202 
	C215.257858,168.153915 218.916122,180.746597 220.924789,193.557800 
	C221.257767,195.681473 221.198547,197.866608 221.438187,200.470612 
	C220.789474,202.724167 219.913040,204.405899 217.296021,204.216125 
	C216.191299,202.912354 216.081543,201.637436 216.173462,200.052277 
	C217.039825,199.632736 217.767761,199.455856 218.512741,199.661392 
	C218.050247,199.512070 217.573608,199.435608 216.707581,199.335968 
	C215.853867,194.877426 214.447754,190.541656 215.480011,186.010544 
	C215.683182,185.118698 215.472977,183.930756 215.019882,183.122391 
	C210.191467,174.508163 209.772888,165.265732 211.076263,155.384399 
z"/>
<path fill="#1C1C1C" opacity="1.000000" stroke="none" 
	d="
M204.691559,111.762650 
	C201.381653,118.273270 195.469315,120.998405 188.801300,121.820831 
	C181.383102,122.735794 173.636856,113.754753 174.730133,106.140427 
	C174.908493,104.898254 175.354141,103.717262 176.638596,103.533310 
	C178.263062,103.300644 179.596359,104.240524 180.246613,105.671799 
	C181.270218,107.924850 182.087280,110.275574 182.920517,112.610382 
	C184.201248,116.199051 186.866150,116.992119 190.068802,115.791183 
	C193.919022,114.347404 197.818192,112.813995 200.633087,109.035263 
	C202.444000,109.277405 203.336533,110.560806 204.691559,111.762650 
z"/>
<path fill="#191919" opacity="1.000000" stroke="none" 
	d="
M234.858475,76.422600 
	C237.911316,83.282417 242.017639,89.328499 246.632751,95.518570 
	C246.816284,95.855309 246.518524,96.100060 246.518524,96.100060 
	C246.518524,96.100060 246.820755,96.340286 246.906952,96.167908 
	C249.375565,98.233635 251.885788,100.354935 254.084564,102.760872 
	C255.128616,103.903305 257.209778,105.257088 255.322037,107.256882 
	C253.556503,109.127220 251.710068,107.774986 250.557663,106.583160 
	C246.579788,102.469170 242.050247,98.844528 238.992889,93.878075 
	C237.631226,91.666161 236.102219,89.557266 234.549286,87.253441 
	C232.322968,89.482590 230.788101,91.937248 229.310806,94.820663 
	C226.924011,95.237976 226.094543,93.948265 225.720032,91.802994 
	C227.081421,87.667534 229.597412,84.692818 231.945175,81.222595 
	C230.652069,78.242500 232.158951,77.161232 234.858475,76.422600 
z"/>
<path fill="#191919" opacity="1.000000" stroke="none" 
	d="
M229.384460,72.285675 
	C223.739044,59.483044 234.790222,41.434475 248.116425,40.842014 
	C249.524933,40.779392 250.955490,40.822628 251.530884,42.234852 
	C252.263474,44.032902 250.835037,44.885014 249.505157,45.619236 
	C248.928009,45.937881 248.320129,46.208225 247.707794,46.454788 
	C234.978607,51.580559 231.375427,58.452469 234.316666,72.503448 
	C232.690033,74.401695 231.160629,73.924179 229.384460,72.285675 
z"/>
<path fill="#131414" opacity="1.000000" stroke="none" 
	d="
M245.775620,192.196747 
	C242.816742,188.558716 243.057495,184.226257 241.813843,180.381149 
	C239.182327,172.245132 238.290024,163.844971 238.940521,155.298767 
	C239.111374,153.054276 239.332581,150.584106 242.402084,151.062454 
	C245.113632,151.485016 244.420486,153.669998 244.273773,155.712891 
	C243.673172,164.075699 244.958160,172.262115 247.325150,180.261337 
	C248.392227,183.867493 249.082565,187.483444 248.924469,191.594238 
	C247.943985,192.711990 247.045731,192.901733 245.775620,192.196747 
z"/>
<path fill="#191919" opacity="1.000000" stroke="none" 
	d="
M273.621948,186.824097 
	C272.005371,187.080673 270.574646,187.045502 268.715515,187.010117 
	C271.229279,176.780838 272.634705,166.319534 273.070312,155.705185 
	C273.151031,153.738449 273.086029,151.098007 275.617737,151.014740 
	C278.468689,150.921005 278.735596,153.556549 278.534241,155.772858 
	C277.594116,166.120895 277.536072,176.611328 273.621948,186.824097 
z"/>
<path fill="#191A1A" opacity="1.000000" stroke="none" 
	d="
M203.888947,209.713898 
	C204.000961,213.738602 200.904572,214.876709 198.323380,215.782333 
	C191.355164,218.227173 184.014404,218.440750 176.701736,218.196884 
	C175.077927,218.142746 173.098648,217.190979 173.059814,215.398468 
	C173.011581,213.171783 174.974899,212.686386 176.985397,212.577209 
	C182.440948,212.280930 187.926346,212.350586 193.316833,211.190552 
	C196.204590,210.569092 198.713409,209.522003 200.263641,206.358154 
	C201.950668,206.845566 203.055344,207.888443 203.888947,209.713898 
z"/>
<path fill="#161616" opacity="1.000000" stroke="none" 
	d="
M184.253021,65.043442 
	C184.037430,64.066589 184.023544,63.366680 184.016235,62.316673 
	C185.271835,60.918865 186.623291,60.813309 188.420349,61.774261 
	C195.088760,68.144623 199.942612,75.264809 203.487915,83.684097 
	C202.705109,85.192749 201.417084,85.905533 199.891968,86.868874 
	C195.339935,79.188705 190.272873,71.992966 184.253021,65.043442 
z"/>
<path fill="#252525" opacity="1.000000" stroke="none" 
	d="
M349.761200,140.084579 
	C351.658478,137.820877 353.436676,135.941315 355.492584,133.932770 
	C360.327179,128.782211 365.629150,124.906723 372.636230,123.089355 
	C374.003204,124.152039 374.237091,125.434120 374.059021,127.206520 
	C373.841492,128.066055 373.739899,128.711044 373.348969,128.903275 
	C365.880188,132.576172 359.904785,138.254807 353.228149,143.552521 
	C351.088715,143.249756 349.962006,142.272339 349.761200,140.084579 
z"/>
<path fill="#191919" opacity="1.000000" stroke="none" 
	d="
M277.351074,221.093674 
	C276.801300,219.429810 276.625946,217.919250 276.672119,216.225159 
	C279.563080,216.807922 281.085327,216.107391 280.915466,213.024139 
	C280.841675,211.684692 281.662445,210.908356 282.922791,210.563019 
	C284.054382,210.252975 285.301331,210.946426 285.425690,211.614670 
	C286.391663,216.806168 289.265564,214.093292 291.704498,213.272491 
	C292.176025,213.113800 292.661804,212.997238 293.525940,212.814667 
	C293.893646,214.242172 294.788330,215.266037 295.810638,216.600708 
	C290.288757,220.039795 284.119690,221.115479 277.351074,221.093674 
z"/>
<path fill="#161616" opacity="1.000000" stroke="none" 
	d="
M373.270569,128.250305 
	C373.001282,126.638794 373.002441,125.276764 373.006165,123.506203 
	C384.416870,121.622734 389.253723,127.476791 386.317047,139.767975 
	C384.462372,140.815796 382.944702,140.341827 381.129303,139.457001 
	C380.566254,138.798462 380.337341,138.349182 380.321625,137.851913 
	C380.088440,130.470123 380.091248,130.470032 373.270569,128.250305 
z"/>
<path fill="#171717" opacity="1.000000" stroke="none" 
	d="
M268.372559,73.767296 
	C268.703522,73.120125 268.792542,72.787834 268.973816,72.517380 
	C271.901520,68.149147 275.555298,66.742989 278.276367,68.923424 
	C280.651459,70.826591 280.060974,75.152321 276.958588,78.585617 
	C275.160400,80.575577 273.219208,81.622627 270.438141,80.306854 
	C267.507629,78.920364 267.388214,76.736755 268.372559,73.767296 
z"/>
<path fill="#191919" opacity="1.000000" stroke="none" 
	d="
M89.535706,62.346287 
	C88.019424,60.788628 88.391060,59.086327 88.883850,56.995979 
	C93.172852,53.891754 97.442093,51.200676 102.621635,50.270729 
	C105.233635,49.801762 107.321297,50.934414 107.753227,52.838200 
	C108.309288,55.289047 105.832733,55.647514 103.765976,55.948387 
	C98.551399,56.707516 94.181732,59.419937 89.535706,62.346287 
z"/>
<path fill="#131414" opacity="1.000000" stroke="none" 
	d="
M183.382401,175.698730 
	C183.773865,175.307755 184.411728,175.180542 185.536194,175.026245 
	C186.918823,174.581665 187.621353,173.814178 188.908188,173.531250 
	C195.914169,177.071701 202.038269,181.212769 204.259903,189.506317 
	C203.336990,191.137482 202.004501,191.136139 200.259094,190.977982 
	C198.805420,190.542191 198.097427,189.801743 197.519409,188.436356 
	C194.629669,181.967072 188.866852,179.264008 183.382401,175.698730 
z"/>
<path fill="#131313" opacity="1.000000" stroke="none" 
	d="
M346.611511,182.991440 
	C345.782166,183.075439 345.276123,183.044998 344.389954,183.006363 
	C343.491486,182.447296 342.912933,181.946564 342.458252,180.886597 
	C343.999847,173.467682 348.918427,168.558960 353.571716,163.501617 
	C354.478668,162.515945 355.800079,162.094193 357.421448,163.166077 
	C358.274628,164.835251 358.145172,166.154343 357.282013,167.801300 
	C353.681610,173.058334 350.308228,177.967667 346.611511,182.991440 
z"/>
<path fill="#161616" opacity="1.000000" stroke="none" 
	d="
M145.638550,109.434143 
	C144.763611,108.625275 144.109695,108.093079 143.640656,107.430084 
	C142.379013,105.646721 138.816574,104.221619 141.929581,101.504608 
	C144.778336,99.018211 148.235443,99.332176 150.882492,101.877090 
	C152.862091,103.780296 153.431519,106.664055 151.987717,109.184097 
	C150.409622,111.938591 148.069397,110.776222 145.638550,109.434143 
z"/>
<path fill="#080808" opacity="1.000000" stroke="none" 
	d="
M198.730530,190.273956 
	C200.452316,189.973618 201.920181,189.958450 203.827972,189.918091 
	C206.822952,196.353271 208.085007,202.836868 204.372925,209.710876 
	C202.064590,209.967575 201.669601,208.207611 200.706055,206.475311 
	C200.756592,204.956146 200.982056,203.813080 201.140228,202.322723 
	C199.351273,200.458374 199.932816,198.238220 199.257217,196.012939 
	C198.926483,194.944290 198.698608,194.233200 198.349304,193.162872 
	C198.108994,192.029709 198.161530,191.280838 198.730530,190.273956 
z"/>
<path fill="#212121" opacity="1.000000" stroke="none" 
	d="
M349.605652,139.877930 
	C350.388153,141.080139 351.418060,142.004395 352.909637,142.942749 
	C350.930420,148.961655 346.650818,153.465836 342.358765,158.103577 
	C340.561157,157.886002 338.839752,158.538177 337.994690,156.214111 
	C338.904846,152.449234 341.839233,150.301819 343.653076,147.120300 
	C344.793365,146.328888 345.219238,145.406281 345.806458,144.225464 
	C347.106354,142.674789 348.218658,141.365112 349.605652,139.877930 
z"/>
<path fill="#0F0F0F" opacity="1.000000" stroke="none" 
	d="
M306.010376,97.887550 
	C303.545197,100.212997 301.108429,100.638794 298.631195,98.866211 
	C297.160889,97.814133 296.885681,96.249916 297.610657,94.483688 
	C298.767303,91.665726 300.870758,89.801147 303.735687,89.326134 
	C305.174774,89.087555 307.135010,89.781006 307.867004,91.419235 
	C308.918396,93.772324 308.153442,95.884041 306.010376,97.887550 
z"/>
<path fill="#1E1E1E" opacity="1.000000" stroke="none" 
	d="
M125.774422,94.930786 
	C125.843941,91.547630 127.015022,89.313065 130.363098,89.412064 
	C132.885986,89.486656 134.740280,90.750328 134.776520,93.661659 
	C134.812149,96.524620 133.848526,99.190735 131.000870,99.809067 
	C127.895164,100.483437 126.256424,98.268829 125.774422,94.930786 
z"/>
<path fill="#272727" opacity="1.000000" stroke="none" 
	d="
M198.965729,189.698456 
	C198.986618,190.741776 198.988785,191.494781 198.990753,192.624176 
	C198.955841,193.780350 198.764877,194.503647 197.884247,195.265289 
	C195.513123,195.506378 193.502731,195.457428 191.228729,194.581970 
	C189.877274,194.380905 188.864380,194.347031 187.470184,194.334473 
	C186.618439,194.573410 186.128754,194.633102 185.281738,194.366776 
	C183.709793,193.603607 182.358994,192.890976 183.134476,191.276718 
	C183.788345,189.915604 185.022675,188.951553 186.698486,188.897812 
	C190.009262,188.791641 193.320374,188.695312 197.026596,188.326340 
	C198.348999,188.034927 198.826141,188.520325 198.965729,189.698456 
z"/>
<path fill="#040405" opacity="1.000000" stroke="none" 
	d="
M216.951508,204.410339 
	C219.203857,204.238586 219.161118,201.307465 221.311249,201.032928 
	C222.461548,200.039337 223.367325,199.160797 224.625671,198.136536 
	C226.370972,198.613846 227.088806,199.657120 226.987381,201.555695 
	C224.801712,204.971725 222.788025,208.112061 222.942627,212.477814 
	C222.730331,213.042130 222.614578,213.255936 222.216888,213.701080 
	C220.455597,213.844757 219.276703,214.360580 218.204300,215.843674 
	C216.299149,215.434616 217.214737,213.841614 216.694611,212.443375 
	C216.988464,211.278427 217.222504,210.483032 217.057312,209.320251 
	C216.988571,207.614029 216.938034,206.219437 216.951508,204.410339 
z"/>
<path fill="#131313" opacity="1.000000" stroke="none" 
	d="
M293.240601,51.421890 
	C292.994110,49.884365 293.472992,48.861805 294.922119,48.034279 
	C299.159637,48.043812 301.886505,50.473911 304.368042,53.081623 
	C304.196472,53.690311 304.216736,54.259155 304.537903,54.289299 
	C305.188263,54.350346 304.518280,54.535187 304.391235,53.578026 
	C306.718201,52.237125 306.718201,52.237125 311.478729,56.398373 
	C310.094116,57.353081 309.979340,58.675419 310.028748,60.482330 
	C308.797058,60.113380 307.559082,59.336617 306.158478,58.285221 
	C305.410095,57.388031 304.775269,56.823448 303.736877,56.308624 
	C300.108429,54.727730 296.794617,53.202110 293.240601,51.421890 
z"/>
<path fill="#121212" opacity="1.000000" stroke="none" 
	d="
M357.388580,168.061310 
	C356.995361,166.562607 356.935730,164.976196 356.802979,162.918961 
	C357.931580,157.634567 362.433594,156.596741 366.262878,154.455750 
	C367.085846,154.499542 367.009583,155.334824 367.600098,155.179535 
	C367.462891,154.701782 367.607452,154.280365 368.171204,153.701538 
	C368.727081,153.486282 368.971680,153.450027 369.593475,153.451172 
	C371.283203,153.655716 372.592529,153.833496 373.936249,154.963028 
	C368.201233,158.906219 362.566071,162.926819 357.388580,168.061310 
z"/>
<path fill="#292929" opacity="1.000000" stroke="none" 
	d="
M380.778564,139.087082 
	C382.618958,139.005478 384.100006,138.890839 385.737671,139.899429 
	C385.263763,144.132767 383.016144,147.339783 379.570923,150.055908 
	C377.970001,150.647797 376.719238,151.264389 374.884064,150.798264 
	C372.601349,149.235184 373.472900,147.641129 374.564117,146.442490 
	C376.662689,144.137497 378.022491,141.255219 380.778564,139.087082 
z"/>
<path fill="#1C1C1C" opacity="1.000000" stroke="none" 
	d="
M165.801529,97.523872 
	C163.940536,100.359154 161.779297,100.518494 159.237747,99.219437 
	C157.521835,98.342384 157.802277,96.905830 157.796249,95.405472 
	C157.785767,92.793945 159.758804,91.860321 161.586761,91.572014 
	C165.979935,90.879105 166.372162,93.793938 165.801529,97.523872 
z"/>
<path fill="#1C1C1C" opacity="1.000000" stroke="none" 
	d="
M146.205124,215.143005 
	C144.017487,212.451462 144.414230,209.598007 144.628677,206.853821 
	C144.741211,205.413635 145.242844,203.708023 147.182419,203.833557 
	C148.901138,203.944794 150.413116,204.685120 150.378235,206.852127 
	C150.338882,209.296509 150.300995,211.740936 149.965118,214.551422 
	C148.740005,216.051697 147.629303,216.022842 146.205124,215.143005 
z"/>
<path fill="#272727" opacity="1.000000" stroke="none" 
	d="
M199.278046,201.728134 
	C196.183350,202.940689 193.599060,202.533554 191.138657,201.117004 
	C188.948639,199.856140 188.593277,198.342712 190.816437,196.320786 
	C196.754364,194.078140 200.551804,196.475433 199.278046,201.728134 
z"/>
<path fill="#212121" opacity="1.000000" stroke="none" 
	d="
M290.129517,90.768768 
	C291.258789,93.211594 289.695618,94.865700 288.333862,94.741180 
	C285.533142,94.485092 283.192047,92.609077 281.654846,90.210915 
	C280.870270,88.986893 281.674561,87.648476 282.868774,86.837029 
	C284.829895,85.504448 286.210175,86.843925 287.560547,88.009926 
	C288.430237,88.760880 289.205780,89.620834 290.129517,90.768768 
z"/>
<path fill="#363736" opacity="1.000000" stroke="none" 
	d="
M60.390789,210.685577 
	C58.618492,211.435150 57.081120,210.874573 56.016220,208.803925 
	C55.651485,205.076691 56.027058,202.092926 60.649963,201.607788 
	C67.717865,205.273880 60.933926,207.489487 60.390789,210.685577 
z"/>
<path fill="#DBDBDB" opacity="1.000000" stroke="none" 
	d="
M61.039982,201.473022 
	C58.024925,202.709305 56.864590,205.026703 56.238754,208.209076 
	C55.596489,208.299316 55.222343,208.115173 54.519936,207.929260 
	C52.935612,207.345673 51.752979,206.658966 50.669563,205.281525 
	C50.382690,204.523346 50.379974,204.066177 50.660172,203.306122 
	C50.939159,202.431915 51.046368,201.859940 51.153580,201.287979 
	C54.736473,203.208618 57.254978,199.922729 60.708206,199.429352 
	C61.061211,200.026962 61.046398,200.605072 61.039982,201.473022 
z"/>
<path fill="#212121" opacity="1.000000" stroke="none" 
	d="
M281.404114,121.720108 
	C283.092651,121.335381 284.044159,122.127029 284.515228,123.148605 
	C285.429077,125.130272 284.874390,126.865433 283.298615,128.447021 
	C282.227753,129.521820 281.493286,129.432571 280.403015,128.570160 
	C278.623383,127.162422 278.789917,125.494446 279.600922,123.754807 
	C279.930145,123.048607 280.573517,122.488846 281.404114,121.720108 
z"/>
<path fill="#303030" opacity="1.000000" stroke="none" 
	d="
M373.278961,149.685638 
	C375.149811,149.897827 376.720703,149.973663 378.763153,150.073456 
	C378.847076,152.779129 376.205231,153.444489 374.438507,155.222870 
	C372.578857,154.896271 370.808044,155.329865 369.143280,153.789597 
	C369.668854,151.472992 370.721069,149.866623 373.278961,149.685638 
z"/>
<path fill="#303030" opacity="1.000000" stroke="none" 
	d="
M157.834396,208.995544 
	C160.442169,210.982712 159.208298,212.502762 157.754730,214.050858 
	C156.707840,215.165802 155.725159,214.809753 154.784302,213.989349 
	C153.776642,213.110641 152.712555,212.016586 153.486786,210.645462 
	C154.303238,209.199493 155.163910,207.112839 157.834396,208.995544 
z"/>
<path fill="#2C2C2C" opacity="1.000000" stroke="none" 
	d="
M229.014114,72.362839 
	C230.576843,72.299431 232.074799,72.627281 233.964005,72.939438 
	C234.689346,73.864601 235.023438,74.805481 235.324905,76.050659 
	C234.938263,78.208031 231.728546,77.657478 232.078949,80.511887 
	C230.270203,78.461685 228.978210,75.848152 229.014114,72.362839 
z"/>
<path fill="#141414" opacity="1.000000" stroke="none" 
	d="
M225.491333,91.605667 
	C226.681534,92.468826 227.563614,93.537651 228.730682,94.806557 
	C229.069016,96.538673 227.897217,97.496704 227.092316,98.938324 
	C226.589066,99.134933 226.272202,99.107193 225.479797,99.040375 
	C224.832932,98.873428 224.661606,98.745560 224.241714,98.820328 
	C223.394958,99.333641 222.796753,99.644333 221.842392,99.946030 
	C222.107834,96.950592 223.751801,94.429314 225.491333,91.605667 
z"/>
<path fill="#1C1C1C" opacity="1.000000" stroke="none" 
	d="
M203.217194,99.275665 
	C201.742584,97.493919 202.107468,95.631813 201.817947,93.525772 
	C205.414825,90.752129 205.711258,94.268852 207.447205,95.957291 
	C208.049271,97.138420 208.199020,98.374290 208.148834,99.798096 
	C206.332962,101.204384 204.924362,100.453163 203.217194,99.275665 
z"/>
<path fill="#CCCCCC" opacity="1.000000" stroke="none" 
	d="
M199.268417,201.977448 
	C200.421463,195.231247 194.779388,197.348404 191.414154,196.127213 
	C190.976730,195.705780 190.923386,195.339005 190.880096,194.693512 
	C193.043533,193.718475 195.162903,193.647537 197.617371,194.780609 
	C198.442123,194.550888 198.900040,194.455490 199.701752,194.699921 
	C202.236984,196.597931 200.996384,199.048004 201.209442,201.567902 
	C200.591339,201.987366 200.109741,201.999298 199.268417,201.977448 
z"/>
<path fill="#0C0C0C" opacity="1.000000" stroke="none" 
	d="
M207.797791,95.494682 
	C205.379074,96.370415 205.121414,92.597023 202.214523,93.105888 
	C201.832550,93.138519 201.815491,93.214554 201.776642,93.211731 
	C201.568588,92.384239 201.221054,91.603722 201.134796,90.334320 
	C201.397705,88.424957 202.027176,87.209450 203.937561,86.736359 
	C206.303650,89.253204 207.202362,92.087769 207.797791,95.494682 
z"/>
<path fill="#1C1C1C" opacity="1.000000" stroke="none" 
	d="
M291.871582,126.938217 
	C295.174896,128.379501 294.314178,130.510864 292.986816,132.248917 
	C291.757202,133.858994 289.787872,132.829193 289.279175,131.663513 
	C288.420563,129.695908 288.303955,127.355553 291.871582,126.938217 
z"/>
<path fill="#212121" opacity="1.000000" stroke="none" 
	d="
M325.828979,169.663391 
	C323.938568,169.656586 322.828888,168.199127 322.153503,166.680542 
	C321.349945,164.873901 320.337646,165.350159 318.755798,165.886246 
	C317.887360,164.827667 317.383453,163.720474 316.900635,162.303085 
	C318.227264,160.725449 319.690460,160.736420 321.623108,161.729828 
	C323.273682,164.438126 324.542755,166.876740 325.828979,169.663391 
z"/>
<path fill="#161616" opacity="1.000000" stroke="none" 
	d="
M335.319824,207.781967 
	C333.041992,202.864151 337.034576,202.285339 340.443756,201.002609 
	C339.080170,203.231445 337.361237,205.466766 335.319824,207.781967 
z"/>
<path fill="#1C1C1C" opacity="1.000000" stroke="none" 
	d="
M207.632935,102.790985 
	C208.723053,106.053673 207.212875,108.297180 205.189316,110.711105 
	C203.957214,110.176750 203.848053,108.937874 203.476624,107.428604 
	C203.414139,106.819656 203.413040,106.572647 203.486450,105.960190 
	C204.299255,103.937141 205.132599,102.397873 207.632935,102.790985 
z"/>
<path fill="#0C0C0C" opacity="1.000000" stroke="none" 
	d="
M207.954407,102.639847 
	C205.982986,102.939117 205.345642,104.544174 204.124634,105.946922 
	C202.649719,104.852097 203.141281,103.241562 202.975555,101.375282 
	C202.890411,100.559097 202.818008,100.124596 202.822601,99.360031 
	C204.337753,99.320267 205.775909,99.610550 207.581482,99.943428 
	C207.958649,100.744438 207.968384,101.502853 207.954407,102.639847 
z"/>
<path fill="#131313" opacity="1.000000" stroke="none" 
	d="
M204.340073,86.454178 
	C203.104477,87.384094 202.766724,88.652283 201.932007,89.982574 
	C201.427582,90.489326 201.073975,90.501953 200.581787,90.132690 
	C200.114517,89.124847 199.777908,88.361534 199.493195,87.291504 
	C199.879822,85.180344 200.626694,83.826447 203.197556,84.012596 
	C204.473923,84.471436 204.295761,85.303757 204.340073,86.454178 
z"/>
<path fill="#0C0C0C" opacity="1.000000" stroke="none" 
	d="
M203.439758,106.712006 
	C205.069763,107.575928 205.030640,108.881569 204.967926,110.598526 
	C205.043137,111.163239 205.089676,111.334702 205.026978,111.749252 
	C202.900635,112.308403 201.868500,111.173729 201.064407,109.157585 
	C200.912384,108.835884 200.927094,108.384834 201.089417,108.228104 
	C201.693436,107.354492 202.284058,106.839615 203.439758,106.712006 
z"/>
<path fill="#303030" opacity="1.000000" stroke="none" 
	d="
M321.996338,161.714539 
	C320.592743,161.998047 319.180908,161.996597 317.345398,161.994019 
	C316.612091,161.547348 316.302490,161.101822 315.980042,160.380829 
	C316.987732,158.723633 318.529327,159.102524 320.347229,158.934601 
	C321.185547,159.763733 321.586823,160.596649 321.996338,161.714539 
z"/>
<path fill="#3E3E3E" opacity="1.000000" stroke="none" 
	d="
M203.776642,106.592041 
	C203.106735,107.181549 202.471390,107.620224 201.543884,108.065140 
	C201.739304,105.935783 202.226868,103.800179 202.838623,101.329086 
	C204.607864,102.155052 203.667831,103.857674 203.856110,105.727386 
	C203.843399,106.133354 203.811218,106.441193 203.776642,106.592041 
z"/>
<path fill="#252525" opacity="1.000000" stroke="none" 
	d="
M219.472137,104.159973 
	C220.517380,106.117424 222.724442,108.547783 218.399445,109.995834 
	C218.435745,108.138443 218.826050,106.271912 219.472137,104.159973 
z"/>
<path fill="#252525" opacity="1.000000" stroke="none" 
	d="
M188.695709,61.708748 
	C187.455780,62.010414 186.134735,61.999378 184.418274,61.977459 
	C184.000000,60.988987 183.977158,60.011398 183.960785,58.666389 
	C186.282730,58.181370 187.275635,60.048347 188.695709,61.708748 
z"/>
<path fill="#1E1E1E" opacity="1.000000" stroke="none" 
	d="
M78.183487,101.738159 
	C76.529030,100.103386 76.350731,98.135353 78.270721,96.141388 
	C78.465279,97.918526 78.359940,99.678528 78.183487,101.738159 
z"/>
<path fill="#464646" opacity="1.000000" stroke="none" 
	d="
M145.819443,215.224640 
	C147.003250,214.875244 148.025681,214.891342 149.357941,214.912476 
	C149.767365,215.346985 149.866974,215.776443 150.166473,216.485687 
	C148.760818,217.238770 147.178345,217.103577 145.314011,216.326477 
	C145.231094,215.908676 145.444565,215.749390 145.819443,215.224640 
z"/>
<path fill="#1E1E1E" opacity="1.000000" stroke="none" 
	d="
M189.031647,173.245300 
	C188.702545,174.735001 187.783936,175.366684 186.233795,175.191681 
	C186.039017,174.164474 186.055222,173.329788 186.105103,172.078873 
	C187.045502,172.107071 187.952194,172.551498 189.031647,173.245300 
z"/>
<path fill="#161616" opacity="1.000000" stroke="none" 
	d="
M332.311798,209.948914 
	C331.812012,209.002319 329.593353,208.841858 330.746490,207.397217 
	C331.888519,205.966537 332.949188,206.911850 334.141022,208.046112 
	C333.824982,208.754669 333.224823,209.327698 332.311798,209.948914 
z"/>
<path fill="#3E3E3E" opacity="1.000000" stroke="none" 
	d="
M112.739876,213.829346 
	C112.034225,215.228714 110.779961,214.985535 109.263275,214.348541 
	C110.176231,213.987091 111.321480,213.852036 112.739876,213.829346 
z"/>
<path fill="#1E1E1E" opacity="1.000000" stroke="none" 
	d="
M73.285217,105.282379 
	C74.335480,105.010857 75.432915,105.037033 76.940445,105.100426 
	C76.234695,107.315262 74.773056,106.352425 73.285217,105.282379 
z"/>
<path fill="#191A1A" opacity="1.000000" stroke="none" 
	d="
M308.819336,137.463470 
	C309.626984,137.173157 310.811432,136.541214 311.203949,137.659332 
	C311.525482,138.575363 310.874634,139.412170 309.657288,139.942688 
	C309.192993,139.285706 309.027771,138.562180 308.819336,137.463470 
z"/>
<path fill="#2C2C2C" opacity="1.000000" stroke="none" 
	d="
M216.894424,209.242828 
	C218.614670,209.845093 219.003662,210.779663 216.998169,211.978882 
	C215.987579,211.196045 216.624191,210.339569 216.894424,209.242828 
z"/>
<path fill="#303030" opacity="1.000000" stroke="none" 
	d="
M245.553253,192.282990 
	C246.378860,191.921036 247.235886,191.914734 248.414032,191.931793 
	C248.459152,192.443756 248.183167,192.932327 247.965378,193.705368 
	C247.161758,193.864960 246.299957,193.740082 245.232819,193.350220 
	C245.213211,192.936371 245.398941,192.787506 245.553253,192.282990 
z"/>
<path fill="#212121" opacity="1.000000" stroke="none" 
	d="
M323.027069,176.343491 
	C323.458557,175.991119 323.897095,175.989594 324.672058,175.997345 
	C324.916077,176.982849 324.823639,177.959091 324.549072,179.394287 
	C323.492126,178.981964 323.171936,177.876617 323.027069,176.343491 
z"/>
<path fill="#3E3E3E" opacity="1.000000" stroke="none" 
	d="
M69.712517,213.964630 
	C68.899490,215.224289 67.908020,215.169968 66.957291,213.658264 
	C67.765137,213.496857 68.611397,213.633484 69.712517,213.964630 
z"/>
<path fill="#252525" opacity="1.000000" stroke="none" 
	d="
M221.006714,119.690338 
	C219.768036,119.004395 219.745819,118.060989 221.093872,117.035736 
	C221.306656,117.777229 221.251160,118.603630 221.006714,119.690338 
z"/>
<path fill="#363736" opacity="1.000000" stroke="none" 
	d="
M183.548798,128.357147 
	C183.217300,127.573036 183.147141,126.632515 183.103394,125.219452 
	C185.173172,125.540359 184.221024,126.923851 183.548798,128.357147 
z"/>
<path fill="#3E3E3E" opacity="1.000000" stroke="none" 
	d="
M159.407883,43.192116 
	C158.512680,43.886692 157.377090,44.112419 156.069061,43.050323 
	C156.970642,42.827148 158.066406,42.896973 159.407883,43.192116 
z"/>
<path fill="#191A1A" opacity="1.000000" stroke="none" 
	d="
M317.511169,150.678818 
	C315.899506,150.591507 315.985382,149.330582 316.175598,147.672668 
	C317.350281,148.027847 317.056519,149.330414 317.511169,150.678818 
z"/>
<path fill="#212121" opacity="1.000000" stroke="none" 
	d="
M246.958191,95.981201 
	C246.952789,97.054382 246.535706,97.801506 245.360611,97.789032 
	C245.181961,97.787148 244.836044,97.263496 244.855927,97.241447 
	C245.248520,96.806389 245.683762,96.409805 246.463318,95.930359 
	C246.816284,95.855309 246.923218,95.966866 246.958191,95.981201 
z"/>
<path fill="#464646" opacity="1.000000" stroke="none" 
	d="
M200.401855,90.201477 
	C200.784470,89.810944 201.086624,89.876785 201.564758,90.200928 
	C201.816147,91.041824 201.860367,91.767487 201.821167,92.851028 
	C200.537003,92.690849 200.807999,91.416077 200.401855,90.201477 
z"/>
<path fill="#1C1C1C" opacity="1.000000" stroke="none" 
	d="
M97.959930,115.657669 
	C96.224716,115.848381 95.928032,114.679840 96.144333,112.800224 
	C96.777664,113.370468 97.347633,114.342979 97.959930,115.657669 
z"/>
<path fill="#2C2C2C" opacity="1.000000" stroke="none" 
	d="
M345.706940,144.111908 
	C345.943695,145.136978 346.198486,146.428467 344.313599,146.945404 
	C344.448944,146.070511 344.934418,145.154922 345.706940,144.111908 
z"/>
<path fill="#252525" opacity="1.000000" stroke="none" 
	d="
M303.577484,56.545307 
	C304.456818,56.074032 305.405090,56.099957 305.931793,57.645912 
	C305.241455,57.619484 304.487091,57.228378 303.577484,56.545307 
z"/>
<path fill="#464646" opacity="1.000000" stroke="none" 
	d="
M166.832977,179.239532 
	C168.141495,179.270035 168.104935,180.027130 167.192093,181.048218 
	C166.923004,180.633621 166.865845,180.127960 166.832977,179.239532 
z"/>
<path fill="#1E1E1E" opacity="1.000000" stroke="none" 
	d="
M71.219513,97.194962 
	C72.571075,95.604248 72.866859,96.568169 72.823204,98.348129 
	C72.301590,98.271721 71.865227,97.846886 71.219513,97.194962 
z"/>
<path fill="#464646" opacity="1.000000" stroke="none" 
	d="
M166.004486,207.256622 
	C167.111176,207.574783 166.980179,208.234619 166.180420,209.042313 
	C165.920822,208.585846 165.874954,208.032516 166.004486,207.256622 
z"/>
<path fill="#111111" opacity="1.000000" stroke="none" 
	d="
M343.983093,101.747543 
	C342.917694,101.131035 343.073303,100.519302 344.379089,100.034218 
	C344.485992,100.516319 344.337891,101.039383 343.983093,101.747543 
z"/>
<path fill="#1C1C1C" opacity="1.000000" stroke="none" 
	d="
M73.732491,88.336212 
	C75.319923,88.969376 74.913605,89.576134 73.148628,89.958023 
	C73.128616,89.531952 73.384476,89.112518 73.732491,88.336212 
z"/>
<path fill="#CCCCCC" opacity="1.000000" stroke="none" 
	d="
M185.013596,194.459305 
	C185.431488,194.149826 185.919296,194.100983 186.748001,194.203949 
	C186.666443,195.831894 186.048279,196.230225 185.013596,194.459305 
z"/>
<path fill="#1C1C1C" opacity="1.000000" stroke="none" 
	d="
M96.175644,110.831245 
	C95.360092,110.667938 94.986694,110.180855 95.619156,109.217094 
	C95.979164,109.586082 96.131287,110.113457 96.175644,110.831245 
z"/>
<path fill="#191A1A" opacity="1.000000" stroke="none" 
	d="
M216.622833,150.689194 
	C215.118988,150.555756 214.662155,149.959869 216.483826,149.030899 
	C216.743851,149.448761 216.741898,149.905563 216.622833,150.689194 
z"/>
<path fill="#272727" opacity="1.000000" stroke="none" 
	d="
M128.500153,213.256104 
	C129.466431,213.113831 129.911591,213.719467 129.905609,214.991302 
	C128.966263,215.069611 128.758850,214.295609 128.500153,213.256104 
z"/>
<path fill="#3E3E3E" opacity="1.000000" stroke="none" 
	d="
M180.009125,156.840515 
	C179.072281,156.467682 179.041000,155.878067 179.825348,155.097717 
	C180.111542,155.561935 180.156296,156.140396 180.009125,156.840515 
z"/>
<path fill="#212121" opacity="1.000000" stroke="none" 
	d="
M216.291290,199.403992 
	C216.876114,199.336258 217.428940,199.385971 217.981750,199.435699 
	C217.636078,199.577271 217.290405,199.718826 216.627197,199.809998 
	C216.309662,199.759583 216.259277,199.521423 216.291290,199.403992 
z"/>
<path fill="#252525" opacity="1.000000" stroke="none" 
	d="
M304.243469,53.336716 
	C304.369690,53.568272 304.453430,53.849369 304.537140,54.130474 
	C304.429382,54.023102 304.321655,53.915730 304.144989,53.578377 
	C304.076050,53.348392 304.200989,53.386253 304.243469,53.336716 
z"/>
<path fill="#FCFBFD" opacity="1.000000" stroke="none" 
	d="
M187.000946,293.997437 
	C147.708847,293.520691 108.915749,293.116852 70.125725,292.515045 
	C60.626152,292.367676 51.203632,291.223267 42.258877,287.608826 
	C31.431244,283.233551 23.952555,273.812286 24.186108,264.770569 
	C24.454550,254.378159 32.404900,244.689636 43.783924,240.835602 
	C52.960819,237.727417 62.422089,237.933411 71.916054,238.271240 
	C90.705185,238.939789 109.492630,239.770035 128.288452,240.112671 
	C166.590454,240.810837 204.903854,240.762360 243.194458,239.740112 
	C275.286072,238.883392 307.353699,237.139633 339.434723,235.859207 
	C343.059662,235.714523 345.300293,234.285065 346.378998,230.732376 
	C347.463715,227.159943 347.821777,223.595291 346.981384,218.596466 
	C351.514923,222.780075 351.774994,226.912170 350.578033,231.237900 
	C349.776764,234.133530 349.501038,236.563339 353.417419,236.158661 
	C367.656250,234.687393 378.281647,247.407547 382.124207,257.536926 
	C385.224243,265.709015 386.697296,274.106812 382.521942,282.198853 
	C378.178162,290.617310 370.151764,293.927277 361.253235,295.103302 
	C345.991974,297.120178 330.644287,295.751862 315.341888,295.751495 
	C293.203186,295.750916 271.064636,295.160278 248.925735,294.841339 
	C228.451050,294.546356 207.975967,294.277679 187.000946,293.997437 
z"/>
<path fill="#F9F9F9" opacity="1.000000" stroke="none" 
	d="
M373.718597,149.504456 
	C371.549408,150.046417 371.245056,152.543854 369.141357,153.186523 
	C368.712738,153.446136 368.534210,153.519348 368.183960,153.825470 
	C367.872864,154.235275 367.733521,154.412155 367.271790,154.689850 
	C363.623779,157.134872 360.298096,159.479111 356.851135,162.135742 
	C350.646027,167.217331 346.685089,173.631470 342.892395,180.579285 
	C342.905731,181.535202 342.794189,182.090317 342.223267,182.794357 
	C340.521881,187.297729 339.223389,191.674347 337.451660,195.850220 
	C336.124817,198.977463 334.540833,202.118271 330.643402,204.625809 
	C330.906372,201.590775 330.881409,199.238007 331.362549,196.993744 
	C331.964844,194.184433 332.336609,191.183914 331.483887,188.668976 
	C329.490967,182.791229 331.163208,177.834076 334.071777,172.559296 
	C334.436951,171.238953 334.600342,170.193665 335.616089,169.229523 
	C337.807526,165.549606 339.812561,162.114197 341.913208,158.340561 
	C346.064758,153.551102 348.338867,147.741592 353.074493,143.385025 
	C359.264984,137.693680 364.434540,131.159164 372.771271,128.261780 
	C381.366241,127.398300 383.468781,130.003250 381.195496,138.591400 
	C379.724060,143.100632 376.674469,146.060196 373.718597,149.504456 
z"/>
<path fill="#212121" opacity="1.000000" stroke="none" 
	d="
M335.474731,168.983093 
	C336.116791,170.226700 334.972015,170.864624 334.360840,172.015259 
	C333.623413,170.857025 330.817200,168.755051 335.474731,168.983093 
z"/>
<path fill="#0F0F0F" opacity="1.000000" stroke="none" 
	d="
M342.354584,183.006104 
	C342.101807,182.400909 342.179993,181.794479 342.543762,181.060883 
	C343.200592,181.410919 343.571838,181.888123 343.976410,182.681732 
	C343.568359,183.000397 343.126953,183.002625 342.354584,183.006104 
z"/>
<path fill="#212121" opacity="1.000000" stroke="none" 
	d="
M324.996704,175.995728 
	C325.091248,175.959946 325.189056,175.928436 325.147705,175.951782 
	C325.008545,176.006622 325.000000,176.000000 324.996704,175.995728 
z"/>
<path fill="#121212" opacity="1.000000" stroke="none" 
	d="
M50.504910,203.046402 
	C50.965580,203.365265 51.099213,203.726669 51.175629,204.383530 
	C51.384457,205.186569 51.497040,205.726166 51.227402,206.649796 
	C50.210560,206.684509 49.422565,206.367188 48.315094,206.023712 
	C48.058647,204.529541 48.662930,203.467621 50.504910,203.046402 
z"/>
<path fill="#111111" opacity="1.000000" stroke="none" 
	d="
M51.224743,207.270111 
	C51.016911,206.485168 51.035271,205.968491 51.086018,205.065430 
	C52.051300,205.565475 52.984196,206.451935 54.054386,207.632935 
	C53.278099,207.797791 52.364513,207.668076 51.224743,207.270111 
z"/>
<path fill="#F2F2F2" opacity="1.000000" stroke="none" 
	d="
M222.234955,213.162598 
	C221.354736,208.448395 222.701126,204.834457 226.628738,201.992126 
	C230.696335,200.259903 234.197556,198.197815 238.309006,197.477005 
	C244.972977,196.308731 248.799515,199.189285 249.152023,205.942566 
	C249.211914,207.089920 249.167526,208.315079 249.557938,209.359818 
	C250.952454,213.091583 249.175735,214.865585 245.906265,216.085342 
	C239.041275,218.646530 232.344559,218.233505 225.350616,215.252594 
	C223.557037,215.456284 222.931580,214.528732 222.234955,213.162598 
z"/>
<path fill="#212121" opacity="1.000000" stroke="none" 
	d="
M222.016602,213.129318 
	C222.888443,213.501862 223.709366,214.139145 224.753601,215.000046 
	C222.505966,216.411224 222.330261,216.371384 221.867493,214.217865 
	C221.945190,213.752960 221.955414,213.573517 222.016602,213.129318 
z"/>
<path fill="#252525" opacity="1.000000" stroke="none" 
	d="
M224.245926,99.016808 
	C224.168076,98.670647 224.330902,98.290604 224.912659,98.831955 
	C224.835739,99.004417 224.667221,99.007545 224.245926,99.016808 
z"/>
<path fill="#292929" opacity="1.000000" stroke="none" 
	d="
M355.863586,133.883392 
	C356.484070,134.054153 357.430511,134.001221 357.501923,135.091568 
	C357.509064,135.200394 357.321869,135.402695 357.198914,135.426270 
	C356.373444,135.584625 356.152924,134.987869 355.879059,134.075409 
	C355.802338,133.772629 355.956848,133.963013 355.863586,133.883392 
z"/>
<path fill="#191919" opacity="1.000000" stroke="none" 
	d="
M199.982925,194.599152 
	C199.566849,194.902008 199.120682,194.920380 198.345612,194.870575 
	C198.184814,194.296158 198.352905,193.789886 198.755768,193.142090 
	C199.311310,193.438614 199.632080,193.876663 199.982925,194.599152 
z"/>
<path fill="#191919" opacity="1.000000" stroke="none" 
	d="
M196.448776,190.536346 
	C196.413132,190.477859 196.484421,190.594833 196.448776,190.536346 
z"/>
<path fill="#303030" opacity="1.000000" stroke="none" 
	d="
M366.958313,155.070984 
	C366.951202,154.401733 367.141083,154.161484 367.765625,154.064148 
	C367.930450,154.778641 368.310089,155.628235 367.429657,156.098480 
	C367.413208,156.107254 367.127350,155.611603 366.958313,155.070984 
z"/>
<path fill="#7537A2" opacity="1.000000" stroke="none" 
	d="
M240.338654,250.805084 
	C242.609604,250.897247 244.435272,251.001709 246.262192,251.033554 
	C248.186554,251.067123 248.916122,252.375870 248.990326,253.922180 
	C249.080887,255.809631 247.454025,255.808289 246.135895,255.851608 
	C245.147293,255.884094 244.130524,255.535416 243.163651,255.655960 
	C241.064621,255.917679 237.884491,254.136505 237.948364,258.640594 
	C237.995895,261.991516 237.628616,265.097687 242.596771,264.333801 
	C244.027817,264.113770 245.578827,264.714417 247.023834,264.532867 
	C248.419296,264.357544 249.825485,263.953613 250.429321,265.545410 
	C251.138046,267.413727 249.511902,268.198212 248.263824,268.933716 
	C246.638351,269.891602 244.735550,270.225494 242.967728,269.723694 
	C237.690582,268.225739 237.197952,271.304413 237.503021,275.206879 
	C237.639694,276.955139 238.672073,279.397919 236.197784,279.769135 
	C233.618942,280.156097 234.128357,277.414429 233.673721,275.769867 
	C232.157990,270.286835 234.069336,264.894073 234.042953,259.453339 
	C234.036575,258.138550 234.404373,256.537079 233.796890,255.574188 
	C232.784576,253.969635 230.126633,252.547424 231.374664,250.724503 
	C232.596222,248.940277 235.354218,250.690781 237.436523,250.440048 
	C238.230286,250.344467 239.073318,250.658218 240.338654,250.805084 
z"/>
<path fill="#7334A0" opacity="1.000000" stroke="none" 
	d="
M345.358459,253.778732 
	C350.123322,249.940308 349.107452,254.742020 349.080353,256.533752 
	C349.000671,261.800964 348.352081,267.058136 347.981506,272.323151 
	C347.876678,273.812347 348.268616,275.398102 347.890869,276.792816 
	C347.245453,279.175873 350.185944,283.594910 346.928925,283.554688 
	C343.668549,283.514404 340.860443,286.155121 337.597534,284.572662 
	C335.752777,283.678009 334.142487,282.569031 332.988739,280.889282 
	C329.727661,276.141327 333.413147,266.758087 339.334351,266.435883 
	C344.362488,266.162231 344.678040,263.460510 345.040955,259.996277 
	C345.244629,258.052277 345.334259,256.096344 345.358459,253.778732 
z"/>
<path fill="#7233A0" opacity="1.000000" stroke="none" 
	d="
M66.413635,244.773514 
	C68.225906,246.728455 70.399399,245.714584 72.261818,246.327393 
	C76.335564,247.667801 79.507355,249.549500 79.246132,254.577835 
	C79.000023,259.315369 76.078323,262.397675 71.998077,262.751617 
	C66.435928,263.234100 65.467064,265.726562 66.141899,270.464050 
	C66.324997,271.749420 66.879791,274.360779 64.418861,274.322968 
	C62.584908,274.294739 62.925781,272.177155 62.738964,270.713348 
	C61.797424,263.335785 62.695702,255.935196 62.416958,248.549133 
	C62.363228,247.125443 62.841976,245.565155 63.473980,244.261215 
	C64.286057,242.585785 65.403023,242.601471 66.413635,244.773514 
z"/>
<path fill="#71329F" opacity="1.000000" stroke="none" 
	d="
M119.728310,275.201782 
	C117.906746,273.062897 118.278008,270.608032 117.580063,268.279358 
	C115.488724,269.816956 115.942924,272.309601 114.889854,274.095612 
	C113.792389,275.956909 111.921478,277.186340 110.619766,275.073517 
	C107.652382,270.257111 105.493500,265.010803 104.730270,258.384949 
	C109.734085,261.197449 109.079605,266.168945 111.547882,269.220093 
	C114.229614,267.069458 112.035065,261.179504 116.691017,261.169434 
	C120.675247,261.160797 120.134956,265.761902 121.402107,268.823883 
	C124.199532,266.044586 125.474937,262.650330 126.150887,258.660126 
	C128.981583,259.733246 130.426437,261.062561 129.492889,264.201447 
	C127.267952,271.682373 124.012024,275.677948 119.728310,275.201782 
z"/>
<path fill="#7233A0" opacity="1.000000" stroke="none" 
	d="
M303.198730,268.929657 
	C304.508698,274.907227 300.824127,276.910614 293.382996,274.710663 
	C294.479950,279.833679 297.876923,280.492065 305.384644,277.036774 
	C305.996368,281.374268 304.064362,283.599457 299.202026,284.157654 
	C293.871368,284.769684 288.859253,281.502197 289.329987,276.968414 
	C289.671082,273.683289 289.480255,270.033569 292.797668,267.252808 
	C297.029022,263.705902 299.699524,263.688202 303.198730,268.929657 
z"/>
<path fill="#7436A1" opacity="1.000000" stroke="none" 
	d="
M139.553436,269.992615 
	C138.246445,269.870819 137.056244,268.551422 136.529999,269.669708 
	C135.913513,270.979736 137.085175,272.320526 138.287491,272.794006 
	C141.894592,274.214539 145.356628,273.463928 148.592163,271.268677 
	C149.081741,275.946503 146.980957,278.429443 142.378632,278.920441 
	C137.499664,279.440948 132.614136,276.155060 132.751801,271.796600 
	C132.857864,268.438843 133.265671,265.087158 135.832901,262.025055 
	C138.242737,259.150696 140.470840,258.227539 143.453400,259.879852 
	C146.015915,261.299469 147.896301,263.979401 147.050644,266.880249 
	C146.115509,270.088013 142.880234,270.203644 139.553436,269.992615 
z"/>
<path fill="#7233A0" opacity="1.000000" stroke="none" 
	d="
M182.287521,260.790100 
	C184.460831,260.945953 186.544388,260.599670 187.645828,262.395538 
	C188.889755,264.423676 191.375519,266.635498 189.494370,269.066650 
	C186.922333,272.390686 183.276459,272.429199 179.627884,270.494659 
	C179.784988,275.755371 183.451355,276.539337 191.487778,273.050079 
	C191.902313,277.642609 189.748810,279.886292 184.599655,280.226593 
	C179.570511,280.558929 174.927460,277.201599 175.251770,272.856903 
	C175.613083,268.016296 176.506577,263.093872 182.287521,260.790100 
z"/>
<path fill="#7436A1" opacity="1.000000" stroke="none" 
	d="
M83.399155,271.206665 
	C82.609741,266.901917 83.338638,263.212708 85.298744,259.804718 
	C86.885040,257.046692 88.738953,254.652710 92.346916,257.206238 
	C92.617348,257.397644 92.990555,257.782623 93.172646,257.711395 
	C102.101662,254.216980 96.745483,261.764801 97.789528,264.053650 
	C98.542397,265.704163 96.503441,268.722107 100.720123,268.090240 
	C102.326431,267.849548 102.975906,269.696136 102.630150,270.911774 
	C102.114899,272.723389 100.326973,274.536530 98.647209,273.836395 
	C94.926430,272.285553 92.277931,273.654938 89.123741,275.355347 
	C85.754318,277.171783 84.549477,274.156219 83.399155,271.206665 
z"/>
<path fill="#7537A2" opacity="1.000000" stroke="none" 
	d="
M325.740021,282.706238 
	C322.701019,281.789185 324.115753,279.355499 323.634521,277.618927 
	C323.110504,275.728119 323.256287,273.687836 321.794556,272.058929 
	C319.449921,269.446198 317.404541,269.688812 316.439667,273.063171 
	C315.857239,275.099884 316.039642,277.346680 315.776367,279.486542 
	C315.621002,280.749329 315.612610,282.462585 313.957977,282.550568 
	C312.318878,282.637726 311.883545,281.177429 311.892181,279.727356 
	C311.918915,275.251556 311.953400,270.775726 312.010681,266.300232 
	C312.018768,265.670593 312.170441,264.511322 312.746674,264.730072 
	C317.031097,266.356537 322.571106,265.473175 325.306305,270.220795 
	C327.538025,274.094482 329.150818,278.276978 325.740021,282.706238 
z"/>
<path fill="#7334A0" opacity="1.000000" stroke="none" 
	d="
M166.315491,262.269836 
	C167.469040,260.665863 168.189499,258.441498 170.144943,259.320251 
	C172.139969,260.216797 170.917953,262.176300 170.391693,263.660065 
	C168.906540,267.847260 167.616196,272.111328 165.053436,275.846191 
	C164.034653,277.330933 163.165710,278.603668 161.101822,277.647705 
	C157.535904,275.996063 153.460663,263.821533 155.318268,260.095795 
	C157.379028,261.317535 157.562393,263.639374 158.520447,265.478821 
	C159.421219,267.208252 159.393616,269.406830 161.393372,270.950531 
	C163.883255,268.641693 164.047241,265.036072 166.315491,262.269836 
z"/>
<path fill="#7436A1" opacity="1.000000" stroke="none" 
	d="
M255.785568,268.690582 
	C255.595932,266.806519 253.944916,264.732239 256.424744,264.163605 
	C258.023499,263.796997 258.816498,265.552704 259.075134,267.170166 
	C259.613037,270.534149 261.048370,270.390289 263.216858,268.314484 
	C265.068939,266.541565 267.285217,265.487000 269.994659,265.967438 
	C270.878021,266.124054 271.679291,266.432312 271.852570,267.333954 
	C272.034393,268.280029 271.237854,268.578827 270.521301,269.083466 
	C266.260803,272.083862 261.223145,274.378387 259.874756,280.202820 
	C259.645447,281.193359 258.702484,281.252472 257.861603,281.138123 
	C256.685364,280.978119 256.235718,280.210358 256.207672,279.061890 
	C256.126709,275.743500 256.003510,272.426086 255.785568,268.690582 
z"/>
<path fill="#71329F" opacity="1.000000" stroke="none" 
	d="
M212.828934,266.827423 
	C208.079163,269.793579 203.261749,272.201233 201.837997,277.932587 
	C201.524216,279.195679 200.444748,279.167419 199.453003,279.095245 
	C198.440292,279.021576 198.102386,278.315552 198.079880,277.390381 
	C197.971756,272.944641 198.147659,268.482666 197.083115,264.098877 
	C196.919678,263.425903 196.746597,262.353668 197.917679,262.122437 
	C198.861572,261.936127 199.598328,262.538879 199.929993,263.255463 
	C200.608582,264.721527 201.069000,266.288605 201.655579,267.914825 
	C204.201859,267.887695 205.425522,265.486969 207.477264,264.558929 
	C210.668396,263.115479 212.745941,263.845337 212.828934,266.827423 
z"/>
<path fill="#7334A0" opacity="1.000000" stroke="none" 
	d="
M283.661438,272.379944 
	C283.503693,275.406799 283.311096,278.030029 283.107574,280.652435 
	C283.034973,281.588348 283.343231,282.783478 281.962372,283.008026 
	C281.058838,283.154938 280.441620,282.524780 279.931549,281.825165 
	C278.405762,279.732391 278.712524,272.611115 280.515747,270.818268 
	C282.258942,269.085144 283.057159,270.319855 283.661438,272.379944 
z"/>
<path fill="#71329F" opacity="1.000000" stroke="none" 
	d="
M276.991150,257.524689 
	C279.470184,255.929855 281.827423,255.544113 283.168549,258.183044 
	C284.555511,260.912109 282.075256,262.458618 280.234924,262.995148 
	C274.527069,264.659149 277.861572,259.673218 276.991150,257.524689 
z"/>
<path fill="#1E1E1E" opacity="1.000000" stroke="none" 
	d="
M239.507446,207.364105 
	C241.826065,206.277710 242.994568,207.193756 243.557709,209.028122 
	C244.172729,211.031448 243.833389,213.306061 242.426025,214.498581 
	C240.786148,215.888138 238.944778,214.909424 238.361847,212.756302 
	C237.883728,210.990311 237.953033,209.168793 239.507446,207.364105 
z"/>
<path fill="#303030" opacity="1.000000" stroke="none" 
	d="
M234.976028,206.088318 
	C236.196182,208.529251 236.433990,210.640381 234.384018,212.133728 
	C233.510193,212.770294 231.992050,212.380157 231.214203,211.496109 
	C229.906570,210.009964 229.922394,208.082779 230.741013,206.439240 
	C231.626938,204.660629 233.179932,204.458862 234.976028,206.088318 
z"/>
<path fill="#F5F1F8" opacity="1.000000" stroke="none" 
	d="
M337.001892,271.844849 
	C339.675171,270.726868 342.767822,267.174805 343.762024,272.874329 
	C344.196320,275.364044 343.984894,277.801086 341.222900,279.245667 
	C339.391693,280.203400 337.900452,279.536652 336.715485,278.438599 
	C334.569427,276.449982 335.586945,274.241547 337.001892,271.844849 
z"/>
<path fill="#F5F1F8" opacity="1.000000" stroke="none" 
	d="
M71.625900,250.855499 
	C73.984848,251.365799 75.816994,252.118347 74.778801,254.552643 
	C73.518051,257.508759 70.693626,258.310028 67.807571,258.542419 
	C65.670418,258.714478 66.153008,256.922516 66.165466,255.691177 
	C66.188210,253.443054 65.593666,250.742340 69.224060,250.684464 
	C69.883354,250.673935 70.544144,250.757202 71.625900,250.855499 
z"/>
<path fill="#F9F9F9" opacity="1.000000" stroke="none" 
	d="
M86.387177,270.396484 
	C85.739998,266.985809 86.466446,264.185516 88.090019,261.601105 
	C88.826363,260.428925 89.812202,259.458893 91.312820,259.986420 
	C92.457039,260.388672 93.000618,261.445435 93.219398,262.648560 
	C94.037498,267.147614 91.510307,270.239929 86.387177,270.396484 
z"/>
</svg>